<svg id="Layer_1" data-name="Layer 1" xmlns="http://www.w3.org/2000/svg" viewBox="0 0 708.66 708.66"><defs><style>.cls-1{fill:#1191d0;}.cls-2{fill:#283790;}.cls-3{fill:#fff;}</style></defs><polygon class="cls-1" points="289.59 385.65 292.84 381.88 394.92 263.45 533.59 346.86 519.83 349.67 519.56 356.69 300.32 397.63 297.41 389.2 289.59 385.65"/><path class="cls-2" d="M142.63,226.4c4.6,4,9.92,7,16.13,7.48,2.87.23,3.75,1.47,4.63,3.84q22,59.13,44,118.23c.64,1.72,1.42,2.38,3.29,2.36a147.62,147.62,0,0,1,28.68,2.29c16.18,3,27.91,11.82,34.59,26.77,5,11.2,9.53,22.64,13.72,34.17a140.09,140.09,0,0,0,33.06,51.33c24.76,24.89,54.48,40.67,88.78,47.83a178,178,0,0,0,48.87,3.06c18.64-1.28,36.6-5.29,53.65-13,16-7.23,30.14-17,41.06-30.9,4.39-5.6,8.09-11.6,9.26-18.81.74-4.53-.53-8.68-2.34-12.72-2.91-6.48-7.32-11.91-12.27-16.9-7.12-7.18-14.77-13.7-23.83-18.39a2.62,2.62,0,0,1-1.25-1.88c-.07-10.7,0-21.39,0-32.09a4.64,4.64,0,0,1,.3-1c2.16.83,4.34,1.5,6.38,2.46C551,390.72,570.31,404,585.48,422.7A62.74,62.74,0,0,1,598,446.88c3.17,12.58.34,23.87-7.4,34.1-7.94,10.48-18.14,18.33-29.26,25.06-21,12.73-43.81,21-67.49,27.14a332.6,332.6,0,0,1-47.11,8.44c-19.63,2.13-39.32,2-59,1.46-13.38-.38-26.76-.84-40.12-1.58-35.3-2-69.12-9.69-100.59-26.32-14-7.39-25.78-17.53-36.45-29-14.12-15.26-25.62-32.23-32.94-51.83a89.67,89.67,0,0,1-6-29.66c-.32-15.63,6.31-27.89,18.36-37.42,1.66-1.31,2-2.21,1.25-4.31q-25-66.35-49.91-132.75c-.62-1.65-1.14-3.1,1.34-3.76ZM293,491.16c2.85,2.06,5.67,4.16,8.56,6.16,26.29,18.14,54.31,32.19,86.59,35.77,4.8.53,9.72.07,15,.07-58.21-16.86-102.52-50.51-130.85-104.7-3.92,14.47.21,27.57,5.25,40.85-14.63-4.64-27.92-11.24-41.57-18.71.73,2,1.17,3.31,1.73,4.62,4.28,9.93,11.11,17.94,18.91,25.34-16.18-4-30.55-12-45.19-19.51a7.6,7.6,0,0,0,1.25,1.91,224.05,224.05,0,0,0,28.6,28.11c20.4,16.55,42.85,29,69,33.74,4.16.76,8.4,1,12.61,1.5l.18-.71c-12.32-9.43-21.54-21.58-30.08-34.45Z"/><path class="cls-2" d="M537.32,540.15c-7.14,2.76-14.18,5.82-21.44,8.22-17.92,5.92-36.4,9.32-55.1,11.71-28.92,3.7-58,4.45-87.06,3.5-15.05-.49-30.09-1.72-45.09-3.05a474.94,474.94,0,0,1-80-13.91c-22.48-6-44.35-13.56-64.29-25.86-11.77-7.26-22.23-15.95-29.59-27.93-6.8-11.07-8.29-23.11-6.9-35.74,1.05-9.59,3.57-18.7,8.84-26.89a34.84,34.84,0,0,1,8.9-9.8c2.25,7.22,4.33,14.48,6.82,21.59,1.36,3.89,3.46,7.53,5.16,11.31.27.6.53,1.61.23,2-4,5.42-4,11.44-2.83,17.65,2.15,11.3,8.6,20.08,16.64,27.83,12.07,11.64,26.43,19.75,41.61,26.49,23.36,10.36,47.85,16.89,72.94,21.43,33.42,6,67.13,8.18,101,7.51,14.15-.28,28.31-.74,42.42-1.69,25.55-1.71,50.92-4.76,75.72-11.48,3.91-1.06,7.76-2.37,11.63-3.56l.35.67Z"/><path class="cls-2" d="M194.2,154.24c4.6,0,8.83-.07,13.05.08.63,0,1.46.94,1.8,1.64,2.91,5.93,5.73,11.9,8.58,17.85a3.57,3.57,0,0,0,1.37,1.63v-21h19.67v66.27c-2.17,0-4.44,0-6.7,0-2.69,0-5.94.81-7.89-.41s-2.61-4.5-3.77-6.91c-1.9-3.94-3.75-7.9-5.63-11.86a6.67,6.67,0,0,0-.64-.76v19.54h-7.42c-3.31,0-6.62-.14-9.92,0-2.12.11-2.55-.67-2.53-2.63.1-9.15,0-18.31.05-27.46v-36Z"/><path class="cls-2" d="M435,72.9v-21h19.81v63.27c0,3.07,0,3.08-3,3.08-3.39,0-6.77-.06-10.16,0a2.56,2.56,0,0,1-2.78-1.76c-2.49-5.45-5.1-10.85-7.66-16.26a3.29,3.29,0,0,0-1.17-1.47c0,.72-.11,1.44-.11,2.16,0,4.93-.07,9.85,0,14.78,0,1.64-.54,2.14-2.12,2.11-5.23-.07-10.47,0-15.7,0-1.3,0-2-.32-2-1.8q.06-31.64.05-63.26a7.49,7.49,0,0,1,.17-1c4.38,0,8.81-.05,13.23.07.47,0,1,1,1.35,1.6,2.92,6,5.8,12,8.69,18.06.25.51.56,1,.85,1.49l.45-.08Z"/><path class="cls-2" d="M479.65,154.23c4.4,0,8.55-.07,12.69.07a2.91,2.91,0,0,1,1.87,1.55c3.18,6.47,6.27,13,9.91,19.47v-21h19.69c.06,1.08.17,2.05.17,3v60q0,3.31-3.41,3.32c-3.31,0-6.62,0-9.92,0a2.25,2.25,0,0,1-2.42-1.57c-2.75-6-5.6-11.93-8.85-17.88-.06.61-.18,1.21-.18,1.82,0,5-.07,10,0,15,0,1.75-.57,2.25-2.26,2.23-5.15-.09-10.31-.06-15.46,0-1.41,0-2.08-.33-2.07-1.92q.06-31.28,0-62.55a15.28,15.28,0,0,1,.2-1.6Z"/><path class="cls-2" d="M345,117.83h-5.92c-4,0-8-.1-12,0-1.95.07-2.4-.68-2.55-2.5-.36-4.58-.82-9.17-1.59-13.69A18.91,18.91,0,0,0,320.6,96a5.41,5.41,0,0,0-4.89-2.72v24.25a17.12,17.12,0,0,1-1.86.29c-5.31,0-10.61,0-15.92,0-1.16,0-2.07,0-2.07-1.66q.08-31.84.06-63.69a1.5,1.5,0,0,1,.13-.43c.12-.08.25-.23.37-.23,10.07.08,20.14.15,30.2.28,7.16.09,11.42,4.13,13.41,10.6,2.42,7.88,2.38,15.58-2.79,22.62a2.48,2.48,0,0,0,0,2.19c4.81,8.81,6.72,18.4,7.79,28.22.06.53,0,1.07,0,2.1ZM315.59,77.9c3.37.32,5.27-.51,5.78-2.94a17.33,17.33,0,0,0,.11-6.3c-.37-2.18-2.19-3.26-4.36-3.41-.48,0-1.45.68-1.46,1.07-.11,3.81-.07,7.63-.07,11.57Z"/><path class="cls-2" d="M431.25,154.34h28.36c5,21.82,10.1,43.73,15.22,65.94-6.38,0-12.51,0-18.64-.07-.51,0-1.28-1-1.46-1.61-.74-2.66-1.21-5.39-2-8a2.48,2.48,0,0,0-1.79-1.45q-5.88-.2-11.76,0a2.51,2.51,0,0,0-1.73,1.5c-.76,2.65-1.22,5.39-2,8-.17.63-1,1.53-1.51,1.54-6.13.11-12.27.07-18.78.07,5.38-22.16,10.7-44,16-65.94Zm17.67,39.23L445.4,178l-.54,0c-1.16,5.1-2.33,10.21-3.53,15.49h7.59Z"/><path class="cls-2" d="M276.17,51.82l15.21,66c-6.47,0-12.52,0-18.58-.06-.5,0-1.28-.78-1.43-1.33-.73-2.66-1.35-5.36-1.88-8.07a1.93,1.93,0,0,0-2.32-1.84c-3.69.1-7.39.08-11.08,0-1.31,0-1.93.38-2.18,1.71-.5,2.64-1.07,5.26-1.81,7.84-.19.68-1.06,1.67-1.63,1.68-5.92.09-11.84,0-17.76,0-.14,0-.27-.12-.82-.37l15.92-65.53h28.36Zm-18.3,39.24h7.61c-1.21-5.33-2.36-10.38-3.5-15.43l-.56,0-3.54,15.41Z"/><path class="cls-2" d="M405.58,117.81c-6.44,0-12.58,0-18.72-.07-.48,0-1.19-.88-1.36-1.47-.71-2.59-1.34-5.2-1.83-7.84-.26-1.38-.79-2-2.26-1.92-3.77.09-7.54.07-11.31,0a1.69,1.69,0,0,0-2,1.65q-.78,4.07-1.85,8.07c-.16.6-.86,1.49-1.32,1.5-6.21.1-12.42.07-19,.07,5.38-22.15,10.68-44,16-65.88a11.71,11.71,0,0,1,1.55-.19c8.31,0,16.61,0,24.92,0,1.21,0,2,.17,2.28,1.56,4.89,21.38,9.82,42.75,14.84,64.54ZM376.17,75.54l-.55,0c-1.16,5.13-2.33,10.26-3.52,15.55h7.58l-3.51-15.56Z"/><path class="cls-2" d="M518.26,117.8c-6.43,0-12.56,0-18.7-.07-.43,0-1.08-.93-1.24-1.54q-1-3.89-1.82-7.85c-.27-1.4-.92-1.87-2.34-1.83-3.69.09-7.39.11-11.08,0-1.54-.05-2,.65-2.24,1.94-.54,2.63-1.13,5.25-1.83,7.84-.16.58-.84,1.45-1.29,1.45-6.22.1-12.43.06-18.9.06,1.3-5.47,2.5-10.67,3.76-15.85,3.93-16.09,7.91-32.18,11.77-48.29.36-1.5.88-2,2.4-2q12.12.11,24.23,0c1.57,0,2.28.35,2.65,2,3.42,15.11,6.94,30.2,10.42,45.3q2,8.52,3.91,17c.1.44.14.89.28,1.75ZM492.54,91.29c-1.24-5.47-2.37-10.47-3.5-15.47h-.64l-3.56,15.47Z"/><path class="cls-2" d="M291.73,154.36h19.18c0,.88.14,1.77.15,2.65.09,10.46.13,20.92.27,31.38,0,1.69-.06,4.07,2.37,4s2.36-2.42,2.38-4.12c.16-10.31.21-20.62.29-30.92v-2.93h19.48c0,.79.15,1.6.15,2.41-.05,11.23,0,22.47-.19,33.7a40.15,40.15,0,0,1-4.69,19.06c-3.37,6.13-8.16,10.67-15.43,11.55-7.57.91-13.22-2.69-17.58-8.48a28.87,28.87,0,0,1-5.85-16.28c-.55-13.67-.56-27.36-.77-41a4.61,4.61,0,0,1,.24-1Z"/><path class="cls-2" d="M186.73,186.1c-.2,10-1.65,18.63-7,26.17s-13.68,10.87-21.44,8.27c-6.53-2.19-10.64-7.17-13.5-13.15-3.85-8-4.63-16.66-3.94-25.42A38.52,38.52,0,0,1,148,162.06c4.62-6.39,10.67-9.8,18.78-8.78a15.54,15.54,0,0,1,9.21,4.83c6.06,6.13,9.24,13.64,10.24,22.13.27,2.28.39,4.58.5,5.84Zm-18-.52a27.75,27.75,0,0,0-1.76-5.11c-1.67-2.89-5-2.87-6.64.07a12.13,12.13,0,0,0-1.32,5.24c-.13,3.78,2,6.69,4.56,6.75s4.72-2.88,5.16-6.95Z"/><path class="cls-2" d="M128.93,182.48a102,102,0,0,0-10.53-.67,4.09,4.09,0,0,0-4.27,4.24,5,5,0,0,0,3.59,5.5c3.09,1,6.07.39,9-.79.61-.25,1.2-.55,2-.91,2.64,8,5.2,15.88,7.86,23.71.53,1.56-.58,1.94-1.38,2.47-12,8-29,8.82-37-8.75-7.08-15.49-6.67-31.22,3.62-45.48,9.62-13.34,26-9.25,34.17-2.5a2.41,2.41,0,0,1,.41,2.11c-2.46,7.18-5,14.32-7.42,21.07Z"/><path class="cls-2" d="M224.68,74.94a65.88,65.88,0,0,0-5.32-6.31,13.06,13.06,0,0,0-4.8-2.55,3.39,3.39,0,0,0-4.36,1.65,4,4,0,0,0,.77,4.88,15.13,15.13,0,0,0,2.73,2.1c1.88,1.2,3.78,2.36,5.73,3.44C228.36,83.1,231,91,229.91,100.59a30.23,30.23,0,0,1-1.53,6.71c-2.44,6.8-7.69,10.19-14.56,11.17a42.09,42.09,0,0,1-24-3.67c-.68-.31-1.54-1.49-1.42-2.08,1.35-6.61,2.88-13.18,4.43-20a34.12,34.12,0,0,0,3.3,4.85,28,28,0,0,0,5.48,4.47,3.71,3.71,0,0,0,5-.6,4.51,4.51,0,0,0-.1-5.76,13.33,13.33,0,0,0-2.83-2.32c-2.34-1.62-4.82-3-7.06-4.78A17.15,17.15,0,0,1,190,75.13c-.22-5,.06-10,2.3-14.64,2.89-6,8-8.83,14.27-9.58a38,38,0,0,1,20.31,2.88c1.81.81,2.54,1.55,1.93,3.76-1.59,5.76-2.81,11.61-4.17,17.38Z"/><path class="cls-2" d="M244.17,216.49c1.58-7.14,3.12-14.1,4.75-21.45a18.3,18.3,0,0,0,1.92,3.06,48.14,48.14,0,0,0,6.42,6.12c2.31,1.64,4.58,1.08,5.73-.65a5,5,0,0,0-1.25-6.43c-1.7-1.3-3.57-2.4-5.4-3.53-4.67-2.87-8.41-6.5-9.62-12.09a29,29,0,0,1,1.71-18.5c2.6-5.75,7.54-8.65,13.56-9.51a36.86,36.86,0,0,1,22.62,3.58,10.21,10.21,0,0,1,.86.6c-1.56,6.54-3.12,13.08-4.79,20.06-.81-1.24-1.4-2.19-2-3.09-1.84-2.62-3.91-5-7.14-5.9-2.47-.72-4.42-.2-5.28,1.46a4.48,4.48,0,0,0,1.72,5.66c2.34,1.61,4.78,3.09,7.23,4.52,5.24,3.07,9.41,7,10.49,13.3,1.05,6.08.8,12.12-1.91,17.81s-7.77,8.6-13.87,9.42a43.15,43.15,0,0,1-25.73-4.45Z"/><path class="cls-2" d="M576.59,195.26a28.25,28.25,0,0,0,2.84,4.29,31.93,31.93,0,0,0,5.72,4.87c2.15,1.34,4.29.79,5.37-.79a4.84,4.84,0,0,0-.65-5.95,11.16,11.16,0,0,0-2-1.56c-1.74-1.14-3.51-2.21-5.25-3.34-5.78-3.74-9-9-8.91-15.95a46.58,46.58,0,0,1,.83-9.6c1.79-8.17,7.27-12.67,15.35-13.79a37.34,37.34,0,0,1,21.58,3.25c1,.48,1.64,1,1.33,2.25-1.54,6.17-3,12.36-4.59,18.79-1-1.54-1.72-3.13-2.89-4.2a29.93,29.93,0,0,0-6.35-4.72,3.68,3.68,0,0,0-5.19,1.47,4.37,4.37,0,0,0,1.62,5.49c2.12,1.52,4.36,2.88,6.61,4.2,11.61,6.83,15.37,20,9.09,32-2.94,5.62-7.93,8.24-13.93,9a43.6,43.6,0,0,1-23.4-3.47c-1.53-.67-2-1.37-1.62-3.11,1.44-6,2.69-12.13,4-18.19a5.31,5.31,0,0,1,.41-1Z"/><path class="cls-2" d="M417.9,180.91H408v39.16H388.29V180.93h-10V154.36H417.9v26.55Z"/><path class="cls-2" d="M530,181V154.4h39.39v26.41h-9.7c-.06,1.16-.16,2.12-.16,3.08,0,11.31,0,22.63,0,33.94,0,1.87-.47,2.57-2.43,2.52q-7.38-.18-14.77,0c-1.91,0-2.5-.56-2.49-2.49.07-11,0-22,0-33V181H530Z"/><path class="cls-2" d="M412.11,374l-35,6.55V378c0-14.61,0-29.22,0-43.83,0-1.77.44-2.51,2.23-2.93,10.88-2.55,21.73-5.25,32.83-7.95V374Z"/><path class="cls-3" d="M376.6,381.11V367.8c0-11,0-22.4,0-33.6,0-2.07.67-3,2.61-3.42,8.16-1.92,16.12-3.86,24.55-5.93l8.9-2.17v51.69l-36,6.74Zm35-57.15L404,325.83c-8.43,2.06-16.4,4-24.56,5.93-1.49.35-1.85.83-1.84,2.44.06,11.2.05,22.59.05,33.6v12.1l34-6.37V324Z"/><path class="cls-2" d="M533.59,346.86c-3.38,1.43-6,1-9-1C506.35,334.14,488,322.64,469.65,311Q445,295.39,420.4,279.68c-8.5-5.41-17-10.76-25.48-16.25-1.73-1.13-2.64-.72-3.79.72q-19.44,24.19-38.95,48.32Q327,343.61,301.83,374.71c-2.37,2.93-4.85,5.78-7,8.87-1.4,2-2.91,2.77-5.24,2.06a18.78,18.78,0,0,0-2.88-.37l105-130,141.91,91.54Z"/><path class="cls-2" d="M344.53,154.31H364c.05.95.14,1.84.14,2.72,0,14.69.07,29.37,0,44.06,0,2.38.69,3,3,3,4.22-.16,8.46,0,12.68-.06,1.49,0,2,.5,2,2-.07,4.07-.09,8.15,0,12.23,0,1.62-.57,2.11-2.15,2.11q-16.61-.08-33.22,0c-1.7,0-2-.7-2-2.21.05-9.46,0-18.92,0-28.37v-33C344.42,156,344.49,155.25,344.53,154.31Z"/><path class="cls-2" d="M127.29,141.23a38.76,38.76,0,0,0-19.12.34c-1.43-3.82-2.87-7.59-4.27-11.36Q96.76,111,89.65,91.81c-1.32-3.56-1.89-7.14-.31-10.76,1.23-2.83,3.23-4.84,6.41-5.34a7.61,7.61,0,0,1,7.94,3.54,24.79,24.79,0,0,1,2.59,5.11q10.18,27.27,20.28,54.57c.24.63.41,1.29.74,2.32Z"/><path class="cls-2" d="M448,314.82V354.9L423,360.74c-.08-1-.19-1.72-.19-2.45,0-11.69,0-23.39,0-35.08,0-1.74.39-2.49,2.26-2.91,6.95-1.57,13.84-3.41,20.76-5.13.65-.16,1.33-.22,2.15-.36Z"/><path class="cls-3" d="M422.59,361.36l0-.58c0-.33-.06-.64-.08-.92a14.83,14.83,0,0,1-.11-1.56V347.23c0-7.87,0-16,0-24,0-1.81.41-2.89,2.65-3.4,4.85-1.09,9.76-2.34,14.51-3.55l6.24-1.58c.46-.11.93-.18,1.43-.25l.76-.11.58-.09v41.07l-25.9,6.06Zm24.9-46a1.2,1.2,0,0,0-.2,0c-.49.07-.91.13-1.32.23l-6.23,1.57c-4.75,1.21-9.67,2.46-14.53,3.56-1.62.37-1.88.9-1.87,2.42,0,8,0,16.15,0,24v11.06c0,.45.05.92.1,1.46,0,.12,0,.24,0,.36l24-5.61V315.4Z"/><path class="cls-2" d="M365.72,334.78v7.49c0,9.7,0,19.39,0,29.09,0,1.7-.46,2.34-2.22,2.7-6.38,1.31-12.71,2.87-19.06,4.32a14.78,14.78,0,0,1-1.77.17c-.05-.78-.14-1.43-.14-2.09q0-17,0-33.94c0-1.09-.12-2.09,1.37-2.44,7.15-1.69,14.27-3.46,21.81-5.3Z"/><path class="cls-3" d="M342.24,379.09l0-.51c0-.25,0-.49-.06-.71,0-.5-.08-.95-.08-1.41V360.62q0-9,0-18.1v-.23c0-1,0-2.28,1.75-2.7,5.24-1.24,10.47-2.52,15.86-3.84l6.57-1.61v15.55c0,7.1,0,14.44,0,21.66,0,2-.67,2.8-2.62,3.2-4.4.9-8.85,1.94-13.15,2.95l-5.9,1.37a6.16,6.16,0,0,1-1.17.13l-.67,0-.51,0Zm23-43.67-5.33,1.31c-5.39,1.32-10.62,2.6-15.86,3.84-1,.23-1,.66-1,1.72v.24q0,9,0,18.1v15.84c0,.43.05.86.09,1.33a1.79,1.79,0,0,0,0,.23h.19a5.44,5.44,0,0,0,1-.11l5.9-1.37c4.31-1,8.77-2.05,13.18-3,1.49-.3,1.83-.72,1.82-2.21-.05-7.22,0-14.57,0-21.67V335.42Z"/><path class="cls-2" d="M300.32,401.62v-4l219.24-40.94c.89,3.62.75,3.81-2.38,4.4q-33.82,6.36-67.64,12.73Q405.88,382,362.2,390.07l-61.88,11.55Z"/><path class="cls-2" d="M300.57,437.45c-.85-3.56-.62-3.81,2.66-4.33,13-2.07,26.07-4.2,39.11-6.28,14.78-2.36,29.57-4.67,44.36-7Q411,415.94,435.37,412q31-4.94,62.1-9.82c4.4-.7,8.79-1.44,13.18-2.14.74-.12,1.5-.14,2.22-.2.81,3.54.78,3.67-2.44,4.19q-22.62,3.66-45.25,7.24-24.23,3.87-48.44,7.76-28,4.46-55.95,8.86-24.23,3.85-48.44,7.75c-3.92.63-7.86,1.18-11.77,1.76Z"/><path class="cls-3" d="M300.19,438l-.11-.45c-.43-1.8-.65-2.95-.13-3.72s1.54-1,3.2-1.21q10.83-1.71,21.65-3.47l17.46-2.81L366,422.59l20.59-3.26,22.23-3.55,26.44-4.22,35.82-5.67,26.28-4.15,7-1.13,6.21-1c.53-.08,1.06-.12,1.57-.15l.68-.05.43,0,.1.42c.43,1.9.67,3,.18,3.67s-1.35.85-3,1.12q-15.42,2.49-30.84,4.94l-31.95,5.11q-15.45,2.47-30.9,4.94l-28,4.43q-14,2.2-28,4.43l-26,4.16-22.44,3.59c-2.68.43-5.36.82-8,1.21l-3.75.55-.45.07Zm212.29-37.6-.27,0c-.49,0-1,.07-1.48.14l-6.21,1-7,1.13-26.28,4.15q-17.91,2.82-35.82,5.67L409,416.76l-22.23,3.55-20.59,3.26q-11.88,1.88-23.76,3.77L325,430.15q-10.81,1.75-21.65,3.47c-1.31.21-2.26.38-2.52.78s-.14,1.13.17,2.49l3.29-.49c2.67-.39,5.35-.79,8-1.21l22.44-3.59,26-4.16,28-4.43q14-2.2,28-4.43l30.9-4.94,31.95-5.11q15.42-2.46,30.84-4.94c1.29-.21,2.14-.37,2.36-.69s0-1.23-.23-2.47Z"/><path class="cls-2" d="M247,636.37c-3,0-5.87,0-8.71,0-1.26,0-1.54-.61-1.52-1.73,0-3.08-.11-6.16.06-9.23.12-2.2-1.16-2.12-2.62-2s-3.22-.54-3.1,2.07c.13,2.92,0,5.85.05,8.77,0,1.52-.35,2.26-2.05,2.19-2.6-.11-5.2,0-8,0V601.92h10v6c0,1.54.05,3.08,0,4.62s.4,2.21,2,2a7.22,7.22,0,0,1,1.61,0c1.6.19,2.16-.45,2.12-2.08-.1-3.52,0-7,0-10.68H247v34.51Z"/><path class="cls-2" d="M369.66,636.67c-2.24,0-4.39.08-6.52,0a2.42,2.42,0,0,1-1.65-1.16c-1.21-2.31-2.25-4.7-3.37-7.06a3.42,3.42,0,0,0-1.43-1.61v9.57c-3.17,0-6.07,0-9-.06a1.75,1.75,0,0,1-1.14-1.26c-.06-11,0-22,0-33.27,2.3,0,4.43-.08,6.54.06.47,0,1,.77,1.31,1.31,1.28,2.53,2.47,5.11,3.72,7.66.28.58.66,1.12,1.35,2.29V601.94h10.2v34.74Z"/><path class="cls-2" d="M578.63,601.75c2.15,0,4.22-.12,6.26.07.61.06,1.32.9,1.66,1.55a83.26,83.26,0,0,0,5.05,9.18V601.87h10.08v34.78c-2.3,0-4.52.11-6.72-.07-.6-.05-1.32-.9-1.65-1.55-1.37-2.69-2.62-5.45-3.92-8.19l-.57.11c0,2.56,0,5.13,0,7.69,0,1.12-.25,1.74-1.51,1.72-2.84,0-5.68,0-8.7,0V601.74Z"/><path class="cls-2" d="M157.69,601.75c4.65,0,9.11-.06,13.56.08.56,0,1.42,1,1.58,1.67,2.21,9.24,4.33,18.51,6.47,27.77.36,1.56.68,3.12,1.1,5.08-3.3,0-6.35.08-9.38-.09-.46,0-1.05-1.14-1.24-1.85-1.23-4.45-.09-3.78-4.86-3.85a9.6,9.6,0,0,1-1.61,0c-1.83-.32-2.56.56-2.91,2.26-.72,3.59-.78,3.58-4.31,3.57-1.92,0-3.84,0-5.76,0a5.32,5.32,0,0,1-1-.26l8.35-34.35ZM167,622.42c-.68-2.82-1.28-5.32-1.89-7.83l-.51.08c-.56,2.55-1.11,5.09-1.69,7.76H167Z"/><path class="cls-2" d="M485.68,601.84H496v8.54c0,3.15,0,6.31.1,9.46,0,.67.79,1.31,1.21,2,.44-.63,1.22-1.23,1.26-1.89.21-3.22.25-6.45.29-9.68,0-2.75,0-5.49,0-8.37h10.17c0,1,0,1.89,0,2.79-.17,6.76-.08,13.54-.66,20.27a16.46,16.46,0,0,1-3.06,7.56c-4.4,6.3-12.71,5.84-16.54-.84a22.83,22.83,0,0,1-2.42-6.88,48.46,48.46,0,0,1-.68-8.26c-.1-4.83,0-9.66,0-14.67Z"/><path class="cls-2" d="M423.34,308.54l-52.2,12.8c8.65-10.87,17-21.35,25.41-31.95l26.79,19.15Z"/><path class="cls-3" d="M369.84,322.18l26.61-33.47,28.06,20.06-54.68,13.41Zm26.8-32.1-24.2,30.43,49.72-12.19Z"/><path class="cls-2" d="M299.74,616c-2.7-1.56-5.25-3.08-8.12-1.2-1.55,1-2.1,4-1.37,6.18.51,1.51,1.29,2,3.56,2.26.08-1.71.17-3.42.25-5.22h9.87v18.87c-5-.26-9.92-.13-14.7-.88-3.46-.54-5.46-3.6-6.79-6.72a25.44,25.44,0,0,1-.35-20c2.79-7.08,9.17-9.74,16.37-7.2a18.91,18.91,0,0,1,2.53,1.09q4,2.09,2,6.16c-1,2.14-2.1,4.26-3.26,6.61Z"/><path class="cls-2" d="M574.48,618.92c-.18,4.49-.78,8.86-3.28,12.75-4.38,6.83-12.35,7.08-17.14.53-5.09-7-5-19.65.25-26.49,4.79-6.29,12-6.12,16.46.36,2.68,3.87,3.6,8.24,3.72,12.84Zm-14.64-.71c0,2.08,1.27,3.76,2.68,3.66s2.59-1.93,2.41-3.91c-.14-1.62-.47-3.31-2.55-3.5C561,614.33,559.8,616.12,559.84,618.21Z"/><path class="cls-2" d="M128.09,619a21.79,21.79,0,0,1-3.44,13c-4.16,6.19-11.6,6.55-16.32.81-5.86-7.13-5.67-21,.38-28,4.51-5.18,11-5,15.2.41A20.47,20.47,0,0,1,128.1,619Zm-9.48-1.16c-.14-1.41-.31-3.12-2.42-3.37-1.48-.17-2.58,1.51-2.53,3.72,0,1.7.37,3.34,2.42,3.63,1.45.2,2.54-1.51,2.53-4Z"/><path class="cls-2" d="M459.64,619.15a22,22,0,0,1-3,12.26c-4.32,7.08-12.32,7.45-17.28.83-5.29-7.07-4.89-20.53.82-27.28,4.39-5.19,11.05-5.08,15.22.27A20.87,20.87,0,0,1,459.64,619.15Zm-9.46-1.07c-.17-1.58-.29-3.3-2.39-3.6-1.49-.21-2.59,1.45-2.58,3.67s1.13,3.94,2.59,3.69C449.83,621.49,450.07,619.83,450.18,618.08Z"/><path class="cls-2" d="M624.17,612.9a47.48,47.48,0,0,0-4-3.15c-1.18-.74-2.71-1.24-3.68.3s0,2.63,1.28,3.45,2.36,1.44,3.53,2.17c4.85,3.05,6.61,7.55,5.22,13.31-1.27,5.26-4,7.54-10.1,7.94a21,21,0,0,1-11.53-2.53c.76-3.51,1.52-7,2.32-10.68a41.17,41.17,0,0,0,3.27,3.57c1.23,1.06,2.88,2.2,4.15.34,1.1-1.61.15-3.06-1.44-4l-1-.61c-5.83-3.67-7.29-7-6.06-13.76a9.23,9.23,0,0,1,9.07-8,18.91,18.91,0,0,1,9.88,1.61,2.24,2.24,0,0,1,1,1.85c-.57,2.93-1.35,5.82-1.92,8.18Z"/><path class="cls-2" d="M430.55,613.36a28.81,28.81,0,0,0-4.35-3.74,3.34,3.34,0,0,0-3.18.45c-1,1.15-.22,2.45,1,3.26s2.61,1.61,3.91,2.43c4.91,3.11,6.57,8,4.82,14.28-1.24,4.44-4.72,7-10.46,6.86-3.16-.07-6.3-1.08-9.43-1.75-1.11-.24-1.55-.92-1.22-2.2.77-3,1.37-6.07,1.82-8.12,1.14.82,2.59,1.94,4.11,2.94,1.12.74,2.48,1.36,3.49,0s.49-2.79-.87-3.77-2.88-1.79-4.2-2.83c-4.26-3.37-4.15-8-3.19-12.63a8.54,8.54,0,0,1,7.34-7,18.4,18.4,0,0,1,11.46,1.39,2.25,2.25,0,0,1,1,1.84c-.58,2.92-1.37,5.81-2.07,8.65Z"/><path class="cls-2" d="M323.66,601.84h19.09v8.41H334v4.57c1.38,0,2.81.07,4.23,0s2,.56,2,2c-.08,2,0,4.11,0,6.43H334c-.07,1-.09,1.86-.18,2.66-.19,1.62.5,2.18,2.1,2.1,2.21-.11,4.43,0,7,0,0,2.59.05,4.94-.05,7.28a1.61,1.61,0,0,1-1.15,1c-6,.07-12,.05-18.05.05V601.84Z"/><path class="cls-2" d="M394,628v8.2h-19V601.86h19v8.36h-8.82c-.09.9-.14,1.56-.23,2.22-.22,1.74.37,2.6,2.28,2.4a38,38,0,0,1,4,0v8.51c-1.61,0-3.13.06-4.64,0-1.84-.09-1.66,1.17-1.64,2.32s-.24,2.42,1.61,2.38c2.38,0,4.76,0,7.45,0Z"/><path class="cls-2" d="M516.17,364.93h3.66v133.5h-3.66Z"/><path class="cls-3" d="M520.33,498.94h-4.66V364.44h4.66Zm-3.66-1h2.66V365.44h-2.66Z"/><path class="cls-2" d="M258.89,636.38c0-4.24.14-8.09-.06-11.91a18.08,18.08,0,0,0-1.3-5.94c-2-4.81-4.31-9.51-6.48-14.25-.34-.74-.62-1.51-1-2.53,3.23,0,6.22-.08,9.18.07a2.76,2.76,0,0,1,1.73,1.43c1.05,1.94,1.91,4,3.07,6.46,1.13-2.39,2.12-4.33,3-6.32a2.31,2.31,0,0,1,2.55-1.67c2.73.12,5.48,0,8.57,0-1.84,4.06-3.32,7.94-5.31,11.54a28.26,28.26,0,0,0-3.61,16.55c.18,2.08.53,4.92-.59,6.12s-3.9.37-6,.42c-1.14,0-2.28,0-3.73,0Z"/><path class="cls-2" d="M527.52,636.23H517.2v-20.5l-5.14-.26V601.9h20.57c0,4.22,0,8.41-.06,12.6,0,.37-.86,1-1.38,1a27.3,27.3,0,0,1-3.67.05Z"/><path class="cls-2" d="M81.72,601.86h20.61v13.48a8.45,8.45,0,0,1-1.17.22c-2.67.17-4,1.63-4,4.36v16.43c-3.19,0-6.16.07-9.11-.09-.38,0-1-1.21-1-1.86-.08-5.15,0-10.3,0-15.46,0-3.27,0-3.27-3.17-3.36-.67,0-1.33-.13-2.1-.2V601.86Z"/><path class="cls-2" d="M150.51,601.86v13.52a21.08,21.08,0,0,1-3.07.18c-1.74-.13-2.25.61-2.22,2.29.08,5.38-.05,10.76.07,16.13,0,2-.64,2.54-2.51,2.43-2.44-.13-4.89,0-7.68,0V633c0-5.07-.07-10.14,0-15.21,0-1.72-.51-2.31-2.23-2.25-3.65.14-3.15.05-3.17-3.27s0-6.88,0-10.43h20.78Z"/><path class="cls-2" d="M202.45,628c0,2.56.08,4.85-.07,7.12a1.93,1.93,0,0,1-1.43,1.21c-5.46.09-10.92,0-16.37.08-1.72,0-1.51-1.13-1.51-2.2V603.75c0-.59.1-1.19.17-1.89h10v4.43c0,6.46.06,12.92,0,19.38,0,1.85.57,2.45,2.38,2.34,2.2-.13,4.41,0,6.9,0Z"/><path class="cls-2" d="M464.24,601.87H474v3c0,6.92.06,13.84,0,20.76,0,1.84.57,2.46,2.38,2.35,2.14-.13,4.3,0,6.88,0,0,2.53.06,5-.07,7.36,0,.37-.92,1-1.43,1-5.46.07-10.92.08-16.37,0-.5,0-1.43-.78-1.43-1.2,0-11,0-22,.06-33,0-.06.1-.11.26-.29Z"/><path class="cls-2" d="M440.52,419h3.62v93.92h-3.62V419Z"/><path class="cls-3" d="M444.64,513.38H440V418.46h4.62Zm-3.62-1h2.62V419.46H441Z"/><path class="cls-2" d="M536,636.38V601.94h10.13c.05.7.13,1.37.13,2,0,10,0,20,.05,30,0,2-.61,2.54-2.49,2.44-2.52-.14-5.06,0-7.82,0Z"/><path class="cls-2" d="M271.51,372.3l27.29-5.81L283,386.17c2,2.34,4.67,1.91,7.11,2.22s4.84.53,7.34.8v5.66l-12.91,1.64c-1.85-9.18-7.58-16.35-13-24.21Z"/><path class="cls-2" d="M308.39,636.39V601.94h9.95c.05.86.15,1.68.15,2.5,0,9.77-.06,19.55.05,29.32,0,2.2-.72,2.79-2.77,2.67-2.37-.15-4.75,0-7.39,0Z"/><path class="cls-2" d="M373.18,429.56h3.66c.07.7.19,1.36.19,2v67.58c0,1.12.29,2.33-1.59,2.37-1.68,0-2.31-.44-2.28-2.19.09-5.61,0-11.23,0-16.84V429.56Z"/><path class="cls-3" d="M375.26,502a2.61,2.61,0,0,1-2-.6,2.76,2.76,0,0,1-.62-2.1c.06-3.91,0-7.89,0-11.75,0-1.69,0-3.39,0-5.08V429.06h4.62l0,.45c0,.22.05.44.07.66a10.87,10.87,0,0,1,.11,1.41v68a2.53,2.53,0,0,1-.46,1.92,2.17,2.17,0,0,1-1.63.57h-.17Zm-1.58-72v52.45c0,1.69,0,3.39,0,5.08,0,3.86,0,7.84,0,11.76a2,2,0,0,0,.32,1.38,2,2,0,0,0,1.45.31,1.32,1.32,0,0,0,.92-.26c.21-.22.2-.7.18-1.2v-68a9.91,9.91,0,0,0-.11-1.29,2,2,0,0,0,0-.24Z"/><path class="cls-2" d="M480.68,342.92c6.82,4.34,13.31,8.45,19.76,12.6,1,.65,1.23,1.63-.21,1.92-6.44,1.3-12.91,2.48-19.55,3.73V342.92Z"/><path class="cls-3" d="M480.18,361.77V342l5.74,3.65c5,3.2,9.92,6.31,14.79,9.44a1.78,1.78,0,0,1,1,1.72c-.06.32-.32.89-1.41,1.11-4.77,1-9.44,1.83-14.39,2.76l-5.76,1.08Zm1-17.94v16.73l4.57-.86c4.95-.93,9.62-1.8,14.38-2.76.46-.09.61-.25.62-.31s-.14-.41-.58-.7c-4.87-3.13-9.75-6.23-14.79-9.44l-4.2-2.67Z"/><path d="M464,439.86v50.68H464V439.87Z"/><polygon class="cls-1" points="300.15 431.11 300.15 404.81 305.05 403.54 305.05 429.56 300.15 431.11"/><path class="cls-3" d="M299.65,431.79V404.42l5.9-1.54v27Zm1-26.59v25.23l3.9-1.23v-25l-3.9,1Z"/><polygon class="cls-1" points="310.16 403.54 310.16 429.56 329.05 426.77 329.05 399.89 310.16 403.54"/><path class="cls-3" d="M309.66,430.14v-27l19.89-3.84V427.2l-19.89,2.94Zm1-26.19v25l17.89-2.64V400.5L310.66,404Z"/><polygon class="cls-1" points="334.41 399.89 334.41 426.51 354.15 422.68 354.15 395.11 334.41 397.63 334.41 399.89"/><path class="cls-3" d="M333.92,427.12V397.19l20.73-2.64V423.1l-20.73,4Zm1-29.05v27.84l18.73-3.64V395.68Z"/><polygon class="cls-1" points="359.95 394.09 359.95 422.94 375.1 420.4 375.1 391.54 359.95 394.09"/><path class="cls-3" d="M359.45,423.53V393.67L375.61,391v29.87l-16.16,2.71Zm1-29v27.84L374.61,420V392.12l-14.16,2.38Z"/><polygon class="cls-1" points="414.07 383.62 414.07 413.24 427.35 410.81 426.07 381.5 414.07 383.62"/><path class="cls-3" d="M413.57,413.84V383.21l13-2.3,1.32,30.32Zm1-29.8v28.6l12.26-2.24-1.23-28.31-11,2Z"/><polygon class="cls-2" points="376.35 391.54 376.35 420.4 412.83 413.24 412.83 384.91 376.35 391.54"/><path class="cls-3" d="M375.84,421V391.12l37.49-6.8v29.33L375.84,421Zm1-29.05v27.84l35.49-7V385.52L376.84,392Z"/><polygon class="cls-1" points="431.69 380.51 431.69 410.81 453.39 407.24 454.67 376.47 431.69 380.51"/><path class="cls-3" d="M431.19,411.4V380.09l24-4.22-1.32,31.79Zm1-30.47v29.29l20.72-3.41,1.23-29.74Z"/><polygon class="cls-3" points="459.01 376.47 459.01 406.34 462.33 406.34 462.33 374.94 459.01 376.47"/><polygon class="cls-1" points="467.69 373.66 477.14 371.88 477.14 402.66 467.69 404.81 467.69 373.66"/><path class="cls-3" d="M467.19,405.44V373.25l10.45-2v31.78Zm1-31.36v30.11l8.45-1.93V372.48l-8.45,1.6Z"/><polygon class="cls-2" points="480.68 371.88 480.68 402.66 501.26 399.89 501.26 368.05 480.68 371.88"/><path class="cls-3" d="M480.18,403.23V371.46l21.58-4v32.88l-21.58,2.9Zm1-30.94v29.79l19.58-2.63V368.64l-19.58,3.64Z"/><polygon class="cls-1" points="503.44 368.05 513.31 366 513.31 397.37 503.44 399.89 503.44 368.05"/><path class="cls-3" d="M502.94,400.53v-32.9l10.88-2.25v32.37Zm1-32.08v30.79l8.88-2.27V366.61l-8.88,1.83Z"/><polygon class="cls-1" points="322.93 437.45 322.93 442.09 370.02 438.77 370.02 431.11 322.93 437.45"/><path class="cls-3" d="M322.43,442.63V437l.43-.06,47.66-6.42v8.7l-48.09,3.39Zm1-4.74v3.66l46.09-3.25v-6.62Z"/><polygon class="cls-1" points="380.12 428.47 380.12 436.6 437.31 432.53 437.31 418.96 380.12 428.47"/><path class="cls-3" d="M379.62,437.14v-9.09l58.19-9.67V433Zm1-8.25v7.17l56.19-4V419.55Z"/><polygon class="cls-1" points="446.75 417.32 446.75 432.9 513.31 431.11 513.31 407.24 446.75 417.32"/><path class="cls-3" d="M446.25,433.41V416.89l67.56-10.24v24.94h-.49l-67.07,1.81Zm1-15.66v14.63l65.56-1.76V407.81l-65.56,9.93Z"/><polygon class="cls-1" points="324.2 446.43 324.2 462.77 339.52 480.91 370.02 483.96 370.02 443.88 324.2 446.43"/><path class="cls-3" d="M370.52,484.51l-31.25-3.13L323.7,463V446l46.82-2.61Zm-30.75-4.08,29.75,3v-39l-44.82,2.5V462.6l15.07,17.84Z"/><polygon class="cls-1" points="379.35 442.09 380.12 485.49 437.31 490.54 437.31 438.51 379.35 442.09"/><path class="cls-3" d="M437.81,491.09,379.63,486l-.78-44.33,59-3.64v53.11ZM380.61,485l56.2,5V439l-56.95,3.51Z"/><polygon class="cls-1" points="446.75 436.6 446.75 492.18 464.03 494.17 463.95 437.45 446.75 436.6"/><path class="cls-3" d="M464.53,494.74l-18.28-2.11V436.08l18.2.91.08,57.76Zm-17.28-3,16.28,1.88-.08-55.68-16.2-.81v54.61Z"/><polygon class="cls-1" points="467.69 436.6 469.22 494.17 513.31 473.49 513.31 436.6 467.69 436.6"/><path class="cls-3" d="M468.74,495l-1.57-58.85H513.8v37.71l-.29.14-44.78,21Zm-.53-57.85,1.5,56.3,43.11-20.22V437.1Z"/><polygon class="cls-3" points="297.31 389.69 282.04 386.49 282.57 385.85 391.58 254.67 391.96 254.91 533.87 346.44 533.32 347.28 391.79 255.99 283.87 385.85 297.51 388.71 297.31 389.69"/><polygon class="cls-3" points="297.79 389.51 297.02 388.88 394.53 271.54 394.9 271.78 521.79 353.62 521.25 354.46 394.73 272.86 297.79 389.51"/><polygon class="cls-3" points="462.33 315.87 460.67 364.93 467.69 363.32 467.69 319.32 462.33 315.87"/></svg>